# xmcd CD database file
#
# Track frame offsets:
#	150
#	29262
#	57171
#	86922
#	107924
#	111468
#	154954
#	169531
#	199487
#	224852
#
# Disc length: 3201 seconds
#
# Revision: 0
# Processed by: cddbd v1.5.2PL0 Copyright (c) Steve Scherf et al.
# Submitted via: CDex 1.51
#
DISCID=990c7f0a
DTITLE=Schubert, Matthias - Surface
DYEAR=1900
DGENRE=Jazz
TTITLE0=Surface
TTITLE1=Terrasana
TTITLE2=Konsole Mid
TTITLE3=Slow soul
TTITLE4=Kurz und schmerzvoll
TTITLE5=Vergessemermerma
TTITLE6=Studie 1
TTITLE7=Haut bas fragile
TTITLE8=Ulle Ridder
TTITLE9=Free at last
EXTD=
EXTT0=
EXTT1=
EXTT2=
EXTT3=
EXTT4=
EXTT5=
EXTT6=
EXTT7=
EXTT8=
EXTT9=
PLAYORDER=
